<svg xmlns="http://www.w3.org/2000/svg" viewBox="0 0 5120 2880">
  <path d="M1302.5 2695.991c-49.72-4.299-78.81-33.867-84.393-85.78-.763-7.092-1.107-61.402-1.107-174.75V2271h65.972l.264 170.75.264 170.75 2.176 5.31c3.274 7.984 6.636 11.726 13.635 15.172 15.96 7.856 35.683 3.756 44.356-9.221 6.642-9.938 6.333-.87 6.333-185.708V2271h63l-.01 167.75c-.01 179.913.095 176.004-5.014 194.183-8.225 29.27-27.591 49.643-55.48 58.363-13.665 4.273-33.425 6.129-50 4.695zm1224.5-.045c-48.393-4.29-77.299-33.3-83.068-83.366-.695-6.034-.922-52.359-.676-138.08.334-116.294.535-129.736 2.05-136.471 10.571-47.041 39.241-70.548 88.694-72.723 30.612-1.347 55.767 6.26 72.56 21.943 11.91 11.123 18.623 21.574 23.785 37.029 4.941 14.796 5.855 22.878 6.387 56.472l.494 31.25h-62.05l-.418-30.25c-.343-24.785-.722-31.18-2.098-35.4-2.624-8.052-7.395-14.254-13.653-17.75-4.911-2.742-6.552-3.105-15.5-3.426-8.353-.3-10.94-.01-15.65 1.765-8.202 3.088-14.054 9.68-17.045 19.202l-2.312 7.36v255l2.229 7.084c4.178 13.284 13.08 20.026 27.922 21.148 19.694 1.49 32.127-8.304 35.29-27.798.578-3.566 1.047-21.706 1.051-40.685l.01-34.25h62v32.327c0 17.78-.494 37.242-1.097 43.25-3.603 35.856-19.377 62.493-44.903 75.825-16.51 8.624-40.7 12.61-64 10.544zm234 0c-47.964-3.927-76.657-30.05-85.724-78.048-1.643-8.694-1.776-18.962-1.776-136.9 0-120.59.102-128.041 1.88-137.5 8.717-46.349 35.21-71.808 80.594-77.446 17.65-2.193 39.015-.611 54.526 4.037 22.944 6.877 41.96 23.472 52.14 45.504 4.111 8.9 7.918 22.942 9.321 34.38.667 5.443 1.037 52.467 1.033 131.5-.01 130.202-.074 132.362-4.683 148.985-9.825 35.438-34.975 58.093-70.997 63.953-11.852 1.928-24.822 2.476-36.314 1.535zm27.742-61.929c5.663-2.439 11.043-7.683 14.079-13.723 4.764-9.478 4.679-6.941 4.679-139.795 0-116.895-.116-125.42-1.785-131.467-3.241-11.744-9.51-18.942-19.59-22.492-5.601-1.973-19.196-2.006-25.737-.064-5.903 1.753-12.453 7.071-15.852 12.87-5.631 9.61-5.505 6.402-5.521 140.766-.01 78.668.35 125.572.99 129 2.277 12.201 9.253 21.698 18.551 25.257 6.217 2.38 7.428 2.542 16.444 2.214 6.072-.22 9.997-.954 13.742-2.566zm689.92 61.899c-16.158-1.346-31.24-5.885-43.405-13.063-8.198-4.837-21.187-18.02-25.967-26.354-8.839-15.411-12.678-29.598-14.342-53-.7-9.828-.94-55.86-.701-133.5.327-105.796.547-119.483 2.051-127.672 8.246-44.886 32.613-69.481 75.084-75.788 27.148-4.03 55.646.399 74.969 11.653 15.689 9.138 29.363 26.989 35.662 46.554 5.066 15.735 5.978 24.503 5.983 57.503v29.75H3526.123l-.348-31.75c-.404-36.75-.671-38.095-9.311-46.847-6.862-6.951-12.42-8.758-25.34-8.24-8.57.345-10.302.742-15.128 3.469-6.701 3.785-10.316 8.124-13.25 15.901l-2.25 5.967-.29 126.5c-.203 88.27.04 128.43.803 132.889 1.087 6.35 4.288 13.707 7.701 17.7 10.51 12.295 38.54 12.358 48.9.11 1.488-1.76 3.871-5.674 5.296-8.7l2.59-5.5.5-39.5.5-39.5 30.827-.264 30.827-.264-.428 41.764c-.391 38.215-.608 42.513-2.544 50.565-7.595 31.579-26.208 53.915-53.107 63.732-14.296 5.217-34.587 7.453-53.414 5.885zm233.033 0c-48.966-4.045-79.419-34.08-85.587-84.412-1.48-12.085-1.544-249.501-.069-261.527 1.403-11.437 5.21-25.479 9.322-34.379 10.18-22.032 29.195-38.628 52.14-45.504 15.51-4.648 36.876-6.23 54.526-4.038 44.999 5.591 71.511 30.82 80.656 76.75 1.572 7.894 1.765 19.882 2.097 129.698.38 125.935.107 136.982-3.792 153.305-7.848 32.856-26.82 54.774-56.007 64.701-14.151 4.813-34.934 6.922-53.285 5.406zm27.643-61.268c9.518-4.007 16.396-13.42 18.657-25.53.64-3.429 1-50.333.99-129-.016-134.365.11-131.157-5.522-140.767-3.398-5.798-9.948-11.117-15.85-12.87-2.737-.812-8.702-1.477-13.257-1.477-17.977 0-28.399 8.393-32.621 26.27-1.918 8.122-1.776 252.081.15 259.73 3.468 13.76 10.989 21.981 22.85 24.975 5.423 1.369 20.07.576 24.603-1.331zM977 2481v-210h54.54c32.17 0 58.483.44 64.157 1.073 36.62 4.083 59.632 19.577 70.438 47.427 5.473 14.105 6.949 23.569 7.568 48.529.848 34.141-1.587 50.13-10.349 67.971-5.777 11.763-15.151 21.645-25.787 27.185l-6.932 3.612 9.433 4.734c21.13 10.606 33.794 29.572 38.43 57.552 2.141 12.922 3.07 54.512 1.622 72.568-4.445 55.412-32.576 83.9-87.17 88.278-7.343.59-36.435 1.071-64.65 1.071H977Zm119.433 147.53c7.607-2.842 12.997-8.893 15.764-17.7 2.216-7.053 2.303-8.618 2.296-41.33-.01-29.861-.23-34.786-1.83-40.456-1.004-3.55-2.501-7.764-3.329-9.364-2.833-5.48-9.258-11.372-15.587-14.295-6.203-2.865-6.404-2.887-28.497-3.218l-22.25-.333v129.322l24.25-.392c20.448-.33 25.023-.681 29.182-2.234zm-16.232-187.654c7.476-1.587 13.805-5.033 18.225-9.926 8.38-9.274 9.822-16.792 9.398-48.95-.277-20.932-.603-25.331-2.243-30.206-2.643-7.86-8.002-14.606-14.081-17.727-4.845-2.487-5.675-2.577-26.75-2.887l-21.75-.32V2442h15.95c8.774 0 18.336-.506 21.25-1.124zM1461 2481v-210h65v360h109v60h-174zm206 0v-210h66v360h108v60h-174zm206.75 209.425c-.412-.417-.75-94.958-.75-210.092V2271h55.449c60.644 0 71.08.677 86.79 5.63 31.193 9.835 47.64 30.277 53.346 66.298 1.317 8.315 1.528 15.363 1.12 37.409-.283 15.292-1.015 29.348-1.674 32.163-5.937 25.36-16.811 41.474-34.282 50.803-2.887 1.541-5.38 3.17-5.538 3.618-.16.448 2.212 1.83 5.27 3.071 18.773 7.62 32.767 24.778 38.882 47.675 4.02 15.053 4.901 27.644 4.365 62.378-.41 26.572-.796 32.852-2.487 40.455-7.205 32.391-25.514 53.985-53.76 63.406-18.306 6.105-20.352 6.267-85.981 6.795-33 .265-60.337.141-60.75-.276zm120.038-62.322c6.54-2.946 12.256-9.26 14.76-16.303 1.671-4.702 1.923-9.083 2.227-38.83.371-36.218-.22-42.55-4.907-52.534-3.136-6.682-9.705-12.83-16.647-15.582-5.21-2.065-7.707-2.3-27.971-2.644l-22.25-.376v129.32l24.75-.334c23.55-.318 25.006-.45 30.038-2.717zm-10.5-189.015c3.725-1.454 7.528-4 10.664-7.136 9.17-9.17 11.593-20.958 10.762-52.381-.673-25.428-2.476-32.418-10.533-40.827-6.4-6.68-11.17-7.744-34.718-7.744H1939v111.212l19.25-.431c16.993-.38 19.929-.696 25.039-2.692zM2116 2481v-210h65v420h-65zm167 30v-180h-69v-60h203v60h-69v360h-65zm635-29.986V2271h66.005l-.253 209.75-.252 209.75-32.75.264-32.75.263zm115 0v-210.015h82.64l31.816 124.75c17.499 68.612 32.205 125.177 32.68 125.7.486.534.864-54.057.864-124.75v-125.7h59v420h-33.441c-18.392 0-33.678-.383-33.967-.851-.289-.468-18.106-68.98-39.594-152.25s-39.39-152.074-39.784-152.9c-.393-.824-.939 67.576-1.214 152l-.5 153.5-29.25.266-29.25.265zm256.46 208.738c-.27-.7-.37-14.994-.225-31.764l.265-30.49h63v63l-31.276.265c-24.614.208-31.38-.01-31.765-1.01zM3870 2480.99v-210.01l46.743.26 46.744.26 20.784 149c11.431 81.95 21.06 149.675 21.398 150.5.404.988.903.305 1.46-2 .466-1.925 9.864-68.3 20.886-147.5 11.021-79.2 20.302-145.463 20.623-147.25l.585-3.25H4143v420h-62v-159c0-105.333-.338-159-1-159-.55 0-1 .231-1 .514 0 1.018-47.057 313.04-47.541 315.236l-.497 2.25h-26.922c-14.807 0-27.125-.338-27.372-.75-.248-.412-11.187-71.962-24.31-158.999-13.122-87.037-24.196-158.25-24.608-158.25-.412 0-.75 71.549-.75 158.999v159h-57zm-1293.998-338.488 2.997-496.225 509.444-256.234-1.944 167.716-199.93 244.741-40.174 178.54c-1.312 4.416-1.947 5.04-10.148 9.966-39.508 23.735-251.328 148.927-256.893 151.832-1.681.878-2.406.805-3.353-.336zm-35.002-1.856c4.25 1.31-265.26-159.356-265.26-159.356l-40.24-178.395-200.513-245.609-2.531-164.14c.677-3.034 1.019-3.301 3.568-2.791l506.67 255.798s-1.694 494.493 2.556 495.803c-.413-.024-2.325-.614-4.25-1.31zm-49-669.161c-18.975-4.594-90.075-21.917-158-38.497-192.833-47.067-281.525-68.383-302-72.58l-8.5-1.742-135.305 33.302-287.695-75.131 275.2-217.644-496.272-371.867L1796.97 146c1.93 0 3.175 3.074 2.516 6.209l-126.29 478.874s296.047 108.45 453.022 153.798c6.456 1.787 13.375 3.103 15.407 2.931L2287.41 587l256.921 107.752 5.832 2.594-14.243 769.865c-1.217 9.76-2.83 12.823-6.693 12.707-1.5-.045-18.252-3.84-37.227-8.433zm95.072 3.887L2572.5 696.824l260.617-109.497c2.4-.48 3.37.418 10.083 9.32l136.439 191.157 468.342-155.537c.838-.689-12.159-50.515-60.98-233.767-60.44-226.869-65.866-247.906-64.497-250.075 1.66-2.631 2.804-2.055 7.496 3.773l413 575.66-499 371.882 279 215.844-289.32 76.328-138.68-32.488S2587.072 1475.372 2590.583 1480c-1.955 0-2.54-.77-3.511-4.628z" style="fill:#b7000b"/>
</svg>
