<?xml version="1.0" encoding="UTF-8" standalone="no"?>
<svg
   viewBox="0 0 5120 2880"
   version="1.1"
   id="svg29487"
   sodipodi:docname="bullbitcoin-logo.svg"
   inkscape:version="1.1.1 (c3084ef, 2021-09-22)"
   xmlns:inkscape="http://www.inkscape.org/namespaces/inkscape"
   xmlns:sodipodi="http://sodipodi.sourceforge.net/DTD/sodipodi-0.dtd"
   xmlns="http://www.w3.org/2000/svg"
   xmlns:svg="http://www.w3.org/2000/svg">
  <defs
     id="defs29491" />
  <sodipodi:namedview
     id="namedview29489"
     pagecolor="#ffffff"
     bordercolor="#666666"
     borderopacity="1.0"
     inkscape:pageshadow="2"
     inkscape:pageopacity="0.0"
     inkscape:pagecheckerboard="0"
     showgrid="false"
     inkscape:zoom="0.11357422"
     inkscape:cx="2038.3147"
     inkscape:cy="1686.1221"
     inkscape:window-width="1296"
     inkscape:window-height="969"
     inkscape:window-x="0"
     inkscape:window-y="25"
     inkscape:window-maximized="0"
     inkscape:current-layer="svg29487" />
  <path
     id="path29485"
     style="fill:#b7000b"
     d="M 3322.8359 146 L 3455.6191 633.19727 L 2978.416 795.74414 L 2836.7012 589.21094 L 2576.2852 699.92383 L 2587.0898 1479.3535 L 3098.6406 1353.8945 L 3233.459 1389.1719 L 3522.9277 1316.8379 L 3239.0273 1100.1074 L 3743.8848 728.50977 L 3322.8359 146 z M 1799.4766 146.15039 L 1378.543 728.55859 L 1883.3496 1099.9023 L 1599.3848 1316.8379 L 1888.9863 1389.2695 L 2024.7949 1353.6074 L 2535.2031 1478.4473 L 2546.6309 700.42578 L 2285.8828 589.14062 L 2144.4336 795.4082 L 1666.6035 632.99023 L 1799.4766 146.15039 z M 2034.4219 1390.0762 L 2035.8359 1553.7344 L 2237.8379 1800.627 L 2277.6953 1984.209 L 2545.623 2143.4355 L 2541.3262 1649.7852 L 2034.4219 1390.0762 z M 3088.0098 1390.0762 L 2581.1055 1649.7852 L 2576.8125 2143.4355 L 2844.7402 1984.209 L 2884.5977 1800.627 L 3086.5996 1553.7344 L 3088.0098 1390.0762 z M 3491.832 2265.0762 C 3485.0407 2265.0518 3478.1698 2265.5316 3471.3828 2266.5391 C 3428.9118 2272.8461 3404.5448 2297.4402 3396.2988 2342.3262 C 3394.7948 2350.5152 3394.5731 2364.202 3394.2461 2469.998 C 3394.0071 2547.638 3394.2473 2593.67 3394.9473 2603.498 C 3396.6113 2626.9 3400.4501 2641.087 3409.2891 2656.498 C 3414.0691 2664.832 3427.0598 2678.0165 3435.2578 2682.8535 C 3447.4228 2690.0315 3462.5041 2694.57 3478.6621 2695.916 C 3497.4875 2697.4831 3517.7758 2695.2477 3532.0703 2690.0312 C 3558.9693 2680.2142 3577.5827 2657.8778 3585.1777 2626.2988 C 3587.1137 2618.2468 3587.3317 2613.9494 3587.7227 2575.7344 L 3588.1504 2533.9707 L 3557.3223 2534.2344 L 3526.4961 2534.498 L 3525.9961 2573.998 L 3525.4961 2613.498 L 3522.9062 2618.998 C 3521.4812 2622.024 3519.0974 2625.9373 3517.6094 2627.6973 C 3507.2494 2639.9453 3479.2209 2639.8829 3468.7109 2627.5879 C 3465.2979 2623.5949 3462.0968 2616.2387 3461.0098 2609.8887 C 3460.2468 2605.4297 3460.0021 2565.268 3460.2051 2476.998 L 3460.4961 2350.498 L 3462.7461 2344.5312 C 3465.6801 2336.7542 3469.2951 2332.4159 3475.9961 2328.6309 C 3480.8221 2325.9039 3482.553 2325.5071 3491.123 2325.1621 C 3504.043 2324.6441 3509.6028 2326.4513 3516.4648 2333.4023 C 3525.1048 2342.1543 3525.3714 2343.498 3525.7754 2380.248 L 3526.123 2411.998 L 3587.9961 2411.998 L 3587.9961 2382.248 C 3587.9911 2349.248 3587.0797 2340.4811 3582.0137 2324.7461 C 3575.7147 2305.1811 3562.0406 2287.3294 3546.3516 2278.1914 C 3531.8593 2269.7509 3512.2059 2265.1492 3491.832 2265.0762 z M 2534 2265.3066 C 2484.547 2267.4816 2455.8776 2290.9883 2445.3066 2338.0293 C 2443.7916 2344.7643 2443.5899 2358.206 2443.2559 2474.5 C 2443.0099 2560.221 2443.2366 2606.5461 2443.9316 2612.5801 C 2449.7006 2662.6461 2478.607 2691.6553 2527 2695.9453 L 2527.002 2695.9453 C 2550.302 2698.0113 2574.492 2694.0263 2591.002 2685.4023 C 2616.528 2672.0703 2632.3013 2645.4322 2635.9043 2609.5762 C 2636.5073 2603.5682 2637.002 2584.1062 2637.002 2566.3262 L 2637.002 2534 L 2575.002 2534 L 2574.9922 2568.25 C 2574.9882 2587.229 2574.5194 2605.3695 2573.9414 2608.9355 C 2570.7784 2628.4295 2558.3444 2638.2224 2538.6504 2636.7324 C 2523.8084 2635.6104 2514.9065 2628.8699 2510.7285 2615.5859 L 2508.5 2608.502 L 2508.5 2353.502 L 2510.8125 2346.1406 C 2513.8035 2336.6186 2519.6554 2330.0275 2527.8574 2326.9395 C 2532.5674 2325.1645 2535.1548 2324.8738 2543.5078 2325.1738 C 2552.4558 2325.4948 2554.0968 2325.8576 2559.0078 2328.5996 C 2565.2658 2332.0956 2570.0362 2338.2976 2572.6602 2346.3496 C 2574.0362 2350.5696 2574.4148 2356.965 2574.7578 2381.75 L 2575.1758 2412 L 2637.2266 2412 L 2636.7324 2380.75 C 2636.2004 2347.156 2635.2867 2339.0733 2630.3457 2324.2773 C 2625.1837 2308.8223 2618.4705 2298.371 2606.5605 2287.248 C 2589.7675 2271.565 2564.612 2263.9596 2534 2265.3066 z M 2784.0391 2265.5059 C 2774.5527 2264.8035 2764.7996 2264.9562 2755.9746 2266.0527 C 2710.5906 2271.6907 2684.0979 2297.149 2675.3809 2343.498 C 2673.6029 2352.957 2673.5 2360.408 2673.5 2480.998 C 2673.5 2598.936 2673.6324 2609.2044 2675.2754 2617.8984 C 2684.3424 2665.8964 2713.036 2692.0183 2761 2695.9453 C 2772.492 2696.8863 2785.4625 2696.3382 2797.3145 2694.4102 C 2833.3365 2688.5502 2858.4855 2665.895 2868.3105 2630.457 C 2872.9195 2613.834 2872.9841 2611.6747 2872.9941 2481.4727 C 2872.9981 2402.4397 2872.6279 2355.4157 2871.9609 2349.9727 C 2870.5579 2338.5347 2866.7516 2324.4938 2862.6406 2315.5938 C 2852.4606 2293.5617 2833.444 2276.9668 2810.5 2270.0898 C 2802.7445 2267.7658 2793.5254 2266.2082 2784.0391 2265.5059 z M 3713.9609 2265.5098 C 3704.4744 2266.2123 3695.257 2267.7697 3687.502 2270.0938 C 3664.557 2276.9697 3645.5413 2293.5657 3635.3613 2315.5977 C 3631.2493 2324.4977 3627.4421 2338.5396 3626.0391 2349.9766 C 3624.5641 2362.0026 3624.6274 2599.4189 3626.1074 2611.5039 C 3632.2754 2661.8359 3662.7293 2691.871 3711.6953 2695.916 C 3730.0463 2697.432 3750.8295 2695.3228 3764.9805 2690.5098 C 3794.1675 2680.5828 3813.1403 2658.6646 3820.9883 2625.8086 C 3824.8873 2609.4856 3825.1593 2598.4389 3824.7793 2472.5039 C 3824.4473 2362.6879 3824.2556 2350.7006 3822.6836 2342.8066 C 3813.5386 2296.8766 3787.0263 2271.6476 3742.0273 2266.0566 C 3733.2023 2264.9606 3723.4474 2264.8073 3713.9609 2265.5098 z M 3870 2270.9805 L 3870 2480.9902 L 3870 2691 L 3927 2691 L 3927 2532 C 3927 2444.55 3927.338 2373.002 3927.75 2373.002 C 3928.162 2373.002 3939.2354 2444.215 3952.3574 2531.252 C 3965.4804 2618.289 3976.42 2689.838 3976.668 2690.25 C 3976.915 2690.662 3989.2321 2691 4004.0391 2691 L 4030.9629 2691 L 4031.459 2688.75 C 4031.943 2686.554 4079 2374.5317 4079 2373.5137 C 4079 2373.2307 4079.45 2373 4080 2373 C 4080.662 2373 4081 2426.667 4081 2532 L 4081 2691 L 4143 2691 L 4143 2271 L 4049.2227 2271 L 4048.6387 2274.25 C 4048.3177 2276.037 4039.0366 2342.3 4028.0156 2421.5 C 4016.9936 2500.7 4007.5949 2567.075 4007.1289 2569 C 4006.5719 2571.305 4006.0739 2571.988 4005.6699 2571 C 4005.3319 2570.175 3995.7025 2502.45 3984.2715 2420.5 L 3963.4863 2271.5 L 3916.7422 2271.2402 L 3870 2270.9805 z M 3033 2270.998 L 3033 2481.0137 L 3033 2691.0293 L 3062.25 2690.7637 L 3091.5 2690.498 L 3092 2536.998 C 3092.275 2452.574 3092.8218 2384.174 3093.2148 2384.998 C 3093.6088 2385.824 3111.51 2454.6284 3132.998 2537.8984 C 3154.486 2621.1684 3172.3028 2689.6804 3172.5918 2690.1484 C 3172.8808 2690.6164 3188.1666 2690.998 3206.5586 2690.998 L 3240 2690.998 L 3240 2270.998 L 3181 2270.998 L 3181 2396.6992 C 3181 2467.3922 3180.6227 2521.9832 3180.1367 2521.4492 C 3179.6617 2520.9262 3164.9541 2464.36 3147.4551 2395.748 L 3115.6406 2270.998 L 3033 2270.998 z M 977 2271 L 977 2481 L 977 2691 L 1028.3008 2691 C 1056.5158 2691 1085.6062 2690.5197 1092.9492 2689.9297 C 1147.5432 2685.5517 1175.6741 2657.0624 1180.1191 2601.6504 C 1181.5671 2583.5944 1180.639 2542.004 1178.498 2529.082 C 1173.862 2501.102 1161.1984 2482.1373 1140.0684 2471.5312 L 1130.6348 2466.7969 L 1137.5664 2463.1855 C 1148.2024 2457.6455 1157.5765 2447.763 1163.3535 2436 C 1172.1155 2418.159 1174.5511 2402.1703 1173.7031 2368.0293 C 1173.0841 2343.0693 1171.6078 2333.605 1166.1348 2319.5 C 1155.3288 2291.65 1132.3173 2276.1553 1095.6973 2272.0723 C 1090.0233 2271.4393 1063.7091 2271 1031.5391 2271 L 977 2271 z M 1217 2271 L 1217 2435.4609 C 1217 2548.8089 1217.3444 2603.1189 1218.1074 2610.2109 C 1223.6904 2662.1239 1252.78 2691.6912 1302.5 2695.9902 C 1319.0742 2697.4236 1338.8321 2695.5696 1352.4961 2691.2969 C 1380.3851 2682.5769 1399.7516 2662.2036 1407.9766 2632.9336 C 1413.0856 2614.7546 1412.9802 2618.663 1412.9902 2438.75 L 1413 2271 L 1350 2271 L 1350 2438.0527 C 1350 2622.8907 1350.31 2613.8237 1343.668 2623.7617 C 1334.995 2636.7387 1315.2705 2640.8384 1299.3105 2632.9824 C 1292.3115 2629.5364 1288.9498 2625.7945 1285.6758 2617.8105 L 1283.5 2612.5 L 1283.2363 2441.75 L 1282.9727 2271 L 1217 2271 z M 1461 2271 L 1461 2481 L 1461 2691 L 1635 2691 L 1635 2631 L 1526 2631 L 1526 2271 L 1461 2271 z M 1667 2271 L 1667 2481 L 1667 2691 L 1841 2691 L 1841 2631 L 1733 2631 L 1733 2271 L 1667 2271 z M 1873 2271 L 1873 2480.332 C 1873 2595.466 1873.338 2690.0088 1873.75 2690.4258 C 1874.163 2690.8428 1901.5 2690.9662 1934.5 2690.7012 C 2000.129 2690.1732 2002.1745 2690.0113 2020.4805 2683.9062 C 2048.7265 2674.4853 2067.0352 2652.891 2074.2402 2620.5 C 2075.9312 2612.897 2076.3185 2606.6169 2076.7285 2580.0449 C 2077.2645 2545.3109 2076.3833 2532.721 2072.3633 2517.668 C 2066.2483 2494.771 2052.2535 2477.6122 2033.4805 2469.9922 C 2030.4225 2468.7512 2028.0509 2467.3699 2028.2109 2466.9219 C 2028.3689 2466.4739 2030.861 2464.8437 2033.748 2463.3027 C 2051.219 2453.9737 2062.0943 2437.86 2068.0312 2412.5 C 2068.6903 2409.685 2069.4221 2395.6299 2069.7051 2380.3379 C 2070.1131 2358.2919 2069.9029 2351.2427 2068.5859 2342.9277 C 2062.8799 2306.9067 2046.4313 2286.4659 2015.2383 2276.6309 C 1999.5283 2271.6779 1989.0932 2271 1928.4492 2271 L 1873 2271 z M 2116 2271 L 2116 2481 L 2116 2691 L 2181 2691 L 2181 2271 L 2116 2271 z M 2214 2271 L 2214 2331 L 2283 2331 L 2283 2511 L 2283 2691 L 2348 2691 L 2348 2331 L 2417 2331 L 2417 2271 L 2214 2271 z M 2918 2271 L 2918 2481.0137 L 2918 2691.0273 L 2950.75 2690.7637 L 2983.5 2690.5 L 2983.752 2480.75 L 2984.0059 2271 L 2918 2271 z M 3724.3555 2325.0039 C 3728.9105 2325.0039 3734.8763 2325.6685 3737.6133 2326.4805 C 3743.5153 2328.2335 3750.0649 2333.5536 3753.4629 2339.3516 C 3759.0949 2348.9616 3758.9684 2345.7522 3758.9844 2480.1172 C 3758.9944 2558.7842 3758.6341 2605.6882 3757.9941 2609.1172 C 3755.7331 2621.2272 3748.8559 2630.6414 3739.3379 2634.6484 C 3734.8049 2636.5554 3720.1574 2637.3475 3714.7344 2635.9785 C 3702.8734 2632.9845 3695.3528 2624.7639 3691.8848 2611.0039 C 3689.9588 2603.3549 3689.8164 2359.3954 3691.7344 2351.2734 C 3695.9564 2333.3964 3706.3785 2325.0039 3724.3555 2325.0039 z M 2773.6094 2325.0391 C 2778.5259 2325.0512 2783.3245 2325.5526 2786.125 2326.5391 C 2796.205 2330.0891 2802.4738 2337.2872 2805.7148 2349.0312 C 2807.3838 2355.0783 2807.5 2363.603 2807.5 2480.498 C 2807.5 2613.352 2807.5843 2610.8169 2802.8203 2620.2949 C 2799.7843 2626.3349 2794.4052 2631.5786 2788.7422 2634.0176 C 2784.9972 2635.6296 2781.072 2636.362 2775 2636.582 C 2765.984 2636.91 2764.7736 2636.7491 2758.5566 2634.3691 C 2749.2586 2630.8101 2742.2829 2621.3123 2740.0059 2609.1113 C 2739.3659 2605.6833 2739.0056 2558.7793 2739.0156 2480.1113 C 2739.0316 2345.7473 2738.9042 2348.9557 2744.5352 2339.3457 C 2747.9342 2333.5467 2754.4857 2328.2296 2760.3887 2326.4766 C 2763.6592 2325.5056 2768.6929 2325.0269 2773.6094 2325.0391 z M 1043 2330.8594 L 1064.75 2331.1797 C 1085.825 2331.4897 1086.655 2331.5794 1091.5 2334.0664 C 1097.579 2337.1874 1102.9371 2343.9349 1105.5801 2351.7949 C 1107.2201 2356.6699 1107.5472 2361.068 1107.8242 2382 C 1108.2482 2414.158 1106.8058 2421.6752 1098.4258 2430.9492 C 1094.0058 2435.8422 1087.6772 2439.29 1080.2012 2440.877 L 1080.1992 2440.877 C 1077.2852 2441.495 1067.7232 2442 1058.9492 2442 L 1043 2442 L 1043 2330.8594 z M 1939 2331 L 1959.4629 2331 C 1983.0109 2331 1987.7816 2332.0641 1994.1816 2338.7441 C 2002.2386 2347.1531 2004.0418 2354.1423 2004.7148 2379.5703 C 2005.5458 2410.9933 2003.1212 2422.7812 1993.9512 2431.9512 C 1990.8152 2435.0872 1987.0121 2437.6339 1983.2871 2439.0879 L 1983.2891 2439.0898 C 1978.1791 2441.0858 1975.243 2441.4012 1958.25 2441.7812 L 1939 2442.2129 L 1939 2331 z M 1043 2501.834 L 1065.25 2502.168 C 1087.343 2502.499 1087.5431 2502.5198 1093.7461 2505.3848 C 1100.0751 2508.3078 1106.501 2514.1997 1109.334 2519.6797 C 1110.162 2521.2797 1111.6581 2525.4949 1112.6621 2529.0449 C 1114.2621 2534.7149 1114.4822 2539.639 1114.4922 2569.5 C 1114.4992 2602.212 1114.4133 2603.7771 1112.1973 2610.8301 C 1109.4303 2619.6371 1104.0406 2625.6873 1096.4336 2628.5293 L 1096.4316 2628.5293 C 1092.2726 2630.0823 1087.698 2630.4337 1067.25 2630.7637 L 1043 2631.1562 L 1043 2501.834 z M 1939 2501.834 L 1961.25 2502.2109 C 1981.514 2502.5549 1984.0107 2502.7885 1989.2207 2504.8535 C 1996.1627 2507.6055 2002.7312 2513.7535 2005.8672 2520.4355 C 2010.5542 2530.4195 2011.1464 2536.7527 2010.7754 2572.9707 C 2010.4714 2602.7177 2010.2198 2607.0988 2008.5488 2611.8008 C 2006.0448 2618.8438 2000.3271 2625.1575 1993.7871 2628.1035 C 1988.7551 2630.3705 1987.3 2630.5023 1963.75 2630.8203 L 1939 2631.1543 L 1939 2501.834 z M 3289.5 2627.498 L 3289.2344 2657.9883 C 3289.0894 2674.7583 3289.1909 2689.052 3289.4609 2689.752 L 3289.459 2689.7539 C 3289.844 2690.7539 3296.6106 2690.9717 3321.2246 2690.7637 L 3352.5 2690.498 L 3352.5 2627.498 L 3289.5 2627.498 z " />
</svg>
