<svg xmlns="http://www.w3.org/2000/svg" width="532.684" height="138.251" viewBox="0 0 140.939 36.579">
  <defs>
    <path id="a" d="M101.915 231.492h385.821v396.012H101.915z"/>
    <path id="b" d="M101.915 231.492h385.821v396.012H101.915z"/>
    <path id="d" d="M101.915 231.492h385.821v396.012H101.915z"/>
    <path id="c" d="M101.915 231.492h385.821v396.012H101.915z"/>
    <path id="e" d="M101.915 231.492h956.015v399.882H101.915z"/>
    <path id="h" d="M68.38 402.507h679.133v270.41H68.38z"/>
    <path id="i" d="M68.38 402.507h786.386v266.285H68.38z"/>
    <path id="j" d="M68.38 402.507h786.386v266.285H68.38z"/>
    <path id="k" d="M68.38 402.507h1143.66v291.479H68.38z"/>
    <path id="l" d="M68.38 402.507h1143.66v291.479H68.38z"/>
    <path id="m" d="M68.38 402.507h1143.66v291.479H68.38z"/>
    <path id="n" d="M68.38 402.507h1545.524v297.049H68.38z"/>
    <path id="p" d="M68.38 402.507h1545.524v297.049H68.38z"/>
    <path id="q" d="M68.38 402.507h1545.524v297.049H68.38z"/>
    <path id="o" d="M68.38 402.507h1545.524v297.049H68.38z"/>
    <path id="f" d="M23.544 219.066h37.62v31.99h-37.62z"/>
    <path id="g" d="M23.544 219.066h36.34v19.194h-36.34z"/>
  </defs>
  <g style="display:inline">
    <text xml:space="preserve" x="19.027" y="54.372" style="font-size:50.8px;line-height:1.25;font-family:&quot;Sinhala MN&quot;;-inkscape-font-specification:&quot;Sinhala MN&quot;;stroke-width:.264583" transform="translate(-28.603 -10.391)"/>
  </g>
  <g style="display:inline">
    <text xml:space="preserve" style="font-size:192px;line-height:1.25;font-family:&quot;Sinhala MN&quot;;-inkscape-font-specification:&quot;Sinhala MN&quot;;white-space:pre;shape-inside:url(#o);display:inline;stroke-width:2.56832" transform="matrix(.09237 0 0 .1149 -37.474 -131.505)"><tspan x="68.379" y="571.445"><tspan style="font-family:&quot;CANNET AGENCY DEMO&quot;;-inkscape-font-specification:&quot;CANNET AGENCY DEMO&quot;">RATEL</tspan></tspan></text>
    <path d="M59.761 26.276V10.091h20.84l4.694 5.839v20.287l-5.165-4.17V18.612l-1.685-2.074H61.32v2.908h4.512c.145.165.23.256.254.27.024 0 .03-.022.018-.067-.012-.06-.03-.12-.055-.18-.024-.06-.018-.075.019-.045.036.03.12.135.253.315.133.166.35.451.653.857l5.164.721.345.744-2.719-.113 1.396 2.345c.181.225.374.368.58.428.217.06.423.098.616.113.205.015.386.045.543.09.17.045.302.165.4.36l5.562.158v.429H61.32v.608l-.109.09a.225.225 0 0 0-.09.068l-.327.27c-.012.016-.018.068-.018.158.012-.015.06-.022.145-.022.024 0 .054.022.09.067.049.03.103.06.164.09l.072.046.073.045.108.045a.215.215 0 0 0-.054.045.215.215 0 0 1-.054.045.225.225 0 0 0-.09.068 7.952 7.952 0 0 1-.273.203 1.77 1.77 0 0 0-.235.18v4.17l-.897-.005z" style="font-size:192px;line-height:1.25;font-family:&quot;CANNET AGENCY DEMO&quot;;-inkscape-font-specification:&quot;CANNET AGENCY DEMO&quot;;white-space:pre;display:inline;stroke-width:.264585" transform="translate(-28.603 -7.745)"/>
    <path d="M135.115 10.091q-.49.203-1.124.383-.616.18-1.25.361-.616.158-1.178.338-.562.158-.906.338-.254.384-.58.812-.326.428-.507.654.018.248.145.495.126.226.29.474.163.225.308.496.163.27.253.608.037.113.037.248l.036.226h-9.532v.45h14.334v.564H108.26v.226l2.845.54v.632h21.854l-.87 1.082-5.164.699-.344.744 2.718-.136-1.395 2.367q-.272.338-.599.429-.326.09-.634.112-.29 0-.543.068-.236.067-.381.383l-1.848.203-.2.496h-15.44v.225l2.846.541v.429h24.03v6.47H105.92V10.09zm-31.006 0q-.018 4.486-.018 8.453V42.417l-1.25-1.195.507-3.043-.2-3.45-1.667-.63-.127-1.826-.707-2.683q-.199-.09-.398-.158-.181-.09-.363-.157-.308-.113-.598-.226t-.38-.158V17.35q.108-.023.652-.113t1.178-.203q.725-.09 1.631-.27v-.226H90.481l-3.95-6.447zM137.376 16.944q0-.406-.054-.699-.037-.293-.037-.428 0-.248.091-.586.054-.135.272-.406l.272-.338.018-.023.18-.225.182-.225q.09-.136.181-.248.055-.068.055-.158 0-.045-.018-.113-.018-.09-.018-.18 0-.136.018-.203.054.022.18.022.218 0 .4-.248.18-.248.525-.608l-.054-.79-2.193 2.886q0-.428-.054-.721-.037-.316-.037-.451 0-.27.09-.496.128-.316.309-.563.2-.248.435-.496.145-.136.254-.248.108-.136.217-.316-.054-.09-.054-.225 0-.158-.091-.406l-1.07 1.42V11.106q.019 0 .255-.316.253-.338.489-.699h5.2v14.833l-3.098.45v.204h14.062q.127.18.182.225.054.045.09.045.018 0 .018-.022 0-.023-.054-.113-.036-.09-.036-.113 0-.022.018-.022t.199.248q.181.225.707.946l5.183.677.344.789-2.7-.136 1.377 2.345q.272.338.58.428.308.068.598.09.308.023.562.09.253.068.398.361l5.582.18v.451h-29.212V31.1q-.182.226-.363.474l-.38.473q0-.428-.055-.721-.036-.316-.036-.451 0-.27.09-.496.127-.315.309-.563.199-.248.435-.496.09-.113.18-.203.091-.09.182-.203l-.036-.79-1.07 1.399q0-.429-.054-.722-.036-.315-.036-.45 0-.271.09-.497.145-.315.327-.563l.416-.519q.2-.202.363-.45l-.036-.722-1.07 1.42q0-.428-.036-.744-.036-.315-.036-.45 0-.316.072-.496.073-.158.145-.293.09-.158.181-.27l.417-.52q.2-.202.363-.45l-.037-.699-1.069 1.398q0-.406-.036-.7-.036-.315-.036-.45 0-.316.072-.496.127-.338.326-.586.2-.248.417-.496l.181-.225.181-.27-.036-.7-1.07 1.42q0-.405-.054-.698-.036-.316-.036-.474 0-.27.09-.563.128-.316.327-.541.2-.248.417-.496.09-.113.181-.203.09-.113.181-.248l-.036-.699q-.073.113-.163.203l-.163.203-.363.45q-.2.249-.38.542 0-.406-.055-.7-.036-.315-.036-.45 0-.248.09-.586.127-.316.309-.564.199-.248.435-.495.09-.113.18-.203.091-.09.182-.203l-.036-.699-.218.27-.036.046-.073.09-.38.473-.362.496zM30.93 32.047c.06.12.109.218.145.293l.09.226c.025.03.043.06.055.09l.036.09 1.867 1.871.145 3.562-.689 2.908 1.396 1.284V24.383h4.204c.749.661 1.564 1.382 2.446 2.164l2.61 2.322c.966.856 2 1.766 3.099 2.727l3.261.451-1.721-2.525 7.249 6.087c.362-.15.76-.226 1.196-.226.47 0 .948.09 1.431.27.471.181.96.422 1.468.722.495.316 1.009.684 1.54 1.105.52.42 1.052.864 1.595 1.33l.707-.293-2.229-2.006c-.797-.707-1.6-1.428-2.41-2.165a444.262 444.262 0 0 1-2.447-2.164c-.821-.72-1.606-1.412-2.355-2.073-.87-.782-1.734-1.556-2.592-2.322-.87-.767-1.746-1.54-2.628-2.322l-5.726-.812-.018-.27h10.62l4.693-5.839v-8.453h-26.73c-.06.165-.127.353-.2.564-.072.21-.108.353-.108.428v4.486a.45.45 0 0 1-.054.158 4.04 4.04 0 0 0-.109.248l-.109.225a.45.45 0 0 0-.054.158m3.37 1.578v-5.59h.526c-.072.06-.084.172-.036.338.036.165.054.308.054.428v1.668c0 .06-.018.165-.054.316-.036.135 0 .21.109.225v2.006h.652v-.203c0-.045-.06-.067-.181-.067v-.519h17.723v1.398zm17.615-5.343h-1.106v-.946h1.106zm.96 0v-.946h.743v.946zm3.135 3.9h-.525v-.992h.525zm-1.957-3.9v-.946h.526v.946zm-.634 2.638h-.435v-.316h.435zm3.026-1.42v-.384h.327v.384z" style="font-size:192px;line-height:1.25;font-family:&quot;CANNET AGENCY DEMO&quot;;-inkscape-font-specification:&quot;CANNET AGENCY DEMO&quot;;white-space:pre;stroke-width:.264585" transform="translate(-28.603 -7.745)"/>
    <text xml:space="preserve" x="35.278" y="17.9" style="font-size:5.28634px;line-height:1.25;font-family:&quot;Sinhala MN&quot;;-inkscape-font-specification:&quot;Sinhala MN&quot;;fill:#fff;stroke-width:.264583" transform="translate(-28.603 -10.391)"><tspan x="35.278" y="17.9" style="fill:#fff;stroke-width:.264583">ラテル</tspan></text>
  </g>
</svg>
