<svg xmlns="http://www.w3.org/2000/svg" width="1049.6" height="1615.36">
  <path d="M680.152 642.59c.332-2.768 1.33-11.74 1.772-15.394 17.721-2.105 28.021-5.87 30.79-8.528-10.632-2.548-12.847-8.086-17.61-11.962 8.75-2.548 11.519-3.877 14.73-6.535-10.964-2.658-21.375-10.854-26.138-14.952.997-.443 7.532-3.765 11.962-7.642-23.259-6.202-61.913-6.867-66.786-6.313-4.873.554-20.047 10.854-20.047 10.854s-13.623-7.088-16.392-8.639c-2.769-1.55-15.284-7.974-21.725-10.67-2.222-9.133-5.924-37.52-1.234-49.616 2.715-1.975 13.576-16.045 5.183-29.622-.864-15.674-4.975-39.575-33.077-43.445-31.328-4.314-49.616 18.02-52.578 25.179-2.962 7.158-2.222 17.279-.988 20.982-2.962 7.899-2.221 13.576 1.235 19.5 1.234 10.862 1.974 25.179 4.443 29.375 2.468 4.196 6.912 7.9 8.393 11.108 1.48 3.21 1.728 8.887 8.392 8.887 1.206 2.713 1.119 8.806 1.119 10.647-5.774 4.685-7.103 7.343-18.178 11.109-1.551-.997-2.326-2.216-6.757-1.773-8.638-2.99-15.838-5.537-25.695-2.88-9.857 2.659-13.623 5.65-25.03 5.982-1.219 2.104.553 6.534 3.765 11.297-4.32 2.547-13.07 8.417-20.6 5.538 2.214 4.319 7.199 10.521 9.414 12.958-5.427 4.098-9.193 9.082-10.744 10.965-1.55 1.883-3.544 3.765-12.515 5.538 4.873 4.762 11.186 8.417 22.594 10.521.222 1.108.443 2.326.443 2.326-1.626 7.01-1 18.6 2.446 27.529-2.506 4.699-5.952 10.65-4.855 19.109 1.096 8.458 1.566 20.989-.157 31.013-1.723 10.025-2.663 13-6.265 22.712-3.603 9.711-4.23 11.747-2.506 18.953-1.621 5.174-3.283 12.705-3.283 18.243-2.215 1.44-4.873 2.769-5.094 5.87-.222 3.101-1.108 11.297-1.219 15.395-.11 4.098.886 22.151.776 24.034-.111 1.883-.222 6.535-.997 7.753-.776 1.218-4.098 2.88-4.541 3.434-.443.553 1.218 11.297.997 12.183l-1.441 2.055.783 2.74-4.386 14.411s-3.132 6.109-3.602 7.44c-.47 1.331-2.976 6.657-3.681 7.675-.705 1.018-5.952 5.717-5.952 5.717s2.115 6.344 3.29 7.988c1.174 1.645 6.186 9.712 6.891 10.26.705.548 3.211 1.018 4.542.705 0 0 1.396 2.201 4.165 2.866 2.769.664 6.036.83 8.085.166.83.942 1.606 2.104 1.606 2.104s8.86-.443 14.453-4.042c1.883-.222 4.265-1.828 4.874-2.492.609-.665 5.555-6.625 6.109-7.51l1.903-.255s2.271-2.741 2.35-5.717c.078-2.976.078-5.483 2.114-7.519 2.036-2.036 2.271-3.21 2.428-6.657 0 0-2.82-15.506-5.17-17.542-1.957-2.507-5.168-5.248-4.777-6.344.392-1.097 2.428-5.012 2.428-5.012s-.404-3.08-.313-4.621c.109-1.83.523-3.64 1.018-5.404.679-2.418 1.723-5.56 2.663-7.048 5.03-12.318 8.13-17.413 10.124-20.957 1.994-3.544 9.082-15.949 10.854-27.246-.886-5.094-2.215-17.056-2.436-19.05 3.322-3.322 4.208-11.075 3.1-15.062-1.107-3.988-1.771-9.304 1.33-12.627 2.99 6.203 3.876 7.532 6.978 10.633 3.1 3.101 7.642 5.538 9.635 6.535-.443 1.44-.11 4.43.886 6.202-.221 4.984.222 6.534.554 8.417-2.326 6.756-3.433 15.395-3.212 23.259l-6.867.222-10.964 2.325-.222 1.219 1.772.886-.997 7.974-.332 6.092-4.209 17.942 1 5.35 3.29-.391 1.644 1.801-1.723 13.862-3.602 14.41-3.681 22.007 6.97 2.663s-3.21 7.048-7.44 18.404c-4.229 11.356-5.952 19.58-6.578 26.706a236.094 236.094 0 0 0-.784 28.585c.392 11.591.235 17.073-2.976 24.748-3.21 7.675-4.62 11.983-4.15 18.248.47 6.265 2.114 7.675 2.74 8.928.627 1.253 1.332 3.603 0 7.127-1.33 3.524-2.975 13.862-4.542 20.91-1.566 7.049-2.427 19.814-2.506 23.652l-4.022-.657s-3.655 9.858-3.765 10.744c-.111.886-1.662 12.847-1.662 17.831s.333 14.842.776 23.924c.443 9.082.775 13.401.775 13.401s1.994 29.904-.997 34.556c-2.99 4.652-10.3 11.297-13.512 13.844-3.212 2.548-14.288 9.082-15.617 9.858-1.329.775-4.208 2.104-5.316 3.212-1.108 1.107-17.056 13.955-26.803 16.835-9.746 2.88-12.294 3.654-14.952 4.43-2.658.775-13.844 3.544-14.841 3.876-.997.332-2.326 2.215-2.326 2.99 0 0-1.661 2.77-.886 4.874.775 2.104 2.326 5.427 3.987 6.091 1.661.665 17.61 4.874 34.224 3.102 16.613-1.772 23.812-4.21 39.096-5.095 15.285-.886 23.038-.554 32.23-.775 9.193-.222 22.705-.333 26.028-3.655 3.323-3.323 5.316-12.627 5.427-14.51.11-1.882-4.873-33.005-4.984-34.223 0 0 .346-9.469 1.756-20.746 1.41-11.278 4.386-27.254 5.795-29.604 1.41-2.35 16.447-28.507 18.013-38.531 1.567-10.025 1.253-14.88 1.253-14.88s1.567-18.64 1.097-23.965c0-4.23-.47-13.314 0-14.88.47-1.567 5.012-12.688 5.325-13.94.313-1.254 3.133-16.604 4.23-20.05 1.096-3.445 14.566-27.88 17.699-33.832 3.132-5.952 16.76-35.869 18.012-39.002 1.254-3.132 3.916-14.41 3.916-14.41l7.675 1.253s.47 18.796 7.362 39.315 15.507 38.375 23.652 50.749c8.144 12.374 14.096 20.519 15.506 23.965 1.41 3.446 1.88 8.145 4.386 13.94.553 1.6 4.983 11.568 4.983 11.568s-.664 17.278 6.202 42.309c-1.993 1.108-3.987 1.994-3.987 1.994s11.297 26.581 12.626 31.676c1.33 5.095 10.19 43.638 10.633 48.068.443 4.43.222 10.41-.222 11.74-.443 1.33-4.208 7.088-4.208 7.088s1.55 12.848 1.329 15.285c-.222 2.436-6.867 19.493-9.747 23.923s-12.183 19.05-13.512 20.379c-1.329 1.33-8.639 13.07-8.639 13.07l-2.658 2.879-.443 2.88s7.31 9.081 10.19 9.968c2.88.886 10.189 2.436 13.069 2.215 2.88-.222 23.701-1.33 30.79-2.215 7.088-.887 15.506-2.659 16.835-3.545 1.329-.886 4.43-6.867 5.095-11.518.664-4.652 2.658-21.265 2.215-27.69-.443-6.423-2.659-24.587-1.55-27.467 1.107-2.88 4.872-16.835 4.872-16.835l-3.322-9.968s5.537-39.429 6.202-53.606c.665-14.176 0-50.283-.222-51.39-.221-1.108-3.765-3.766-7.31-3.544 0 0-2.809-22.54-4.689-27.553-1.88-5.012-9.554-23.181-10.337-25.53-.783-2.35-3.29-22.243-5.326-28.665-2.036-6.422-7.988-33.362-8.771-43.857-.783-10.494-3.29-43.7-4.7-50.905-1.409-7.205-5.481-21.772-5.481-21.772l2.35-2.82-1.41-10.65-3.76-12.844-3.759-27.255-1.566-.783s3.916-7.205 3.916-8.771c0-1.566-1.723-8.772-2.037-10.025 1.567-1.566 2.506-5.952.784-9.398-1.723-3.445-3.29-8.301-5.796-9.24-1.566-4.23-2.506-5.483-2.506-5.483s-5.795-1.096-7.362-1.253c0-5.169-1.723-17.23-1.723-17.23s.94-7.518.627-9.398c1.723-.626 5.952-5.325 8.928-11.277 2.976-5.952 1.88-13 1.88-13l-1.41-2.35s6.422-8.928 6.892-10.338c2.036 3.603 4.855 11.434 6.422 14.88-1.88 13.157 3.759 46.363 5.638 53.569 1.88 7.205 6.892 15.35 8.772 21.302s5.012 19.422 5.012 19.422l-1.566 6.579.94 3.759s-5.953 4.385-8.459 13.157c-2.506 8.771.94 11.904-1.566 15.976-2.506 4.073-3.446 14.724-.627 18.17 2.82 3.446 5.64 7.205 5.952 12.844 1.41 1.723 7.675.47 7.675.47l-.626 1.722s4.699 6.736 6.422 7.519c1.723.783 6.265-.313 6.265-.313s1.723 3.915 2.82 4.542c1.096.626 8.144.47 9.867.626 1.567 1.88 5.326 1.88 8.459 1.097 3.132-.783 5.168 0 6.108-2.976 3.29 1.566 8.928.94 10.181-.783 1.253-1.723.157-6.266 2.35-9.555 2.193-3.29 4.542-5.795 3.916-10.494-.627-4.7-1.41-5.796-2.82-6.266-1.41-.47-4.542-2.036-4.699-2.819-.156-.783-1.096-8.615-1.88-11.278-.782-2.662-9.867-21.771-10.65-21.928 1.125-8.275 5.72-37.078 5.896-46.797.177-9.719-.883-30.747-1.413-32.337-.53-1.59-3.358-3.004-5.125-3.888-1.06-7.068-1.59-17.494-1.767-18.554-.177-1.06.883-14.49.353-16.787-.53-2.297-3.887-6.892-4.064-7.952-.177-1.06-3.534-12.546-3.004-23.679.53-11.132 3.727-28.094-4.763-50.89z" style="fill:none;stroke:#6bb9bd;stroke-width:1px;stroke-linecap:butt;stroke-linejoin:miter;stroke-opacity:1"/>
  <path d="M615.006 1345.467s-22.24-7.497-35.736-12.245c-1.249 1.999-1.999 4.498-7.996 9.496-19.992 6.247-44.983 10.746-129.949 10.746-84.966 0-124.7-16.494-141.444-21.992l-1.25-20.741s.25-4.998 1.5-16.244c1.25-11.245 91.464-17.743 128.2-14.994l-51.48-17.743c-24.74 10.496-55.478 15.244-103.71 15.244-52.176 0-97.21-12.245-103.458-17.243-1.5-.75-3.999-10.996-3.999-13.995 0-2.998 2.5-10.246 3.749-12.245 1.25-1.999 18.493-6.997 40.984-10.496 22.49-3.498 52.479-2.749 62.725-2.499 10.246.25 15.494.5 30.987 1.25 3.749-7.497 6.248-10.496 20.242-13.245 13.995-2.749 79.22-13.495 82.968-13.994 7.497 1.25 44.982 9.996 48.98 10.745v-4.248c22.991-8.247 64.226-10.284 98.461-9.996 37.24.313 93.963 15.244 94.213 18.993.122 1.834 2.194 7.03 1.982 11.983-.222 5.17-2.732 10.098-2.732 11.757 0 3.249-22.99 8.247-25.74 8.497 9.746 1.999 36.236 6.247 36.236 6.247s-.5-8.746.5-10.496c22.49-5.747 40.734-7.996 91.713-7.996 38.735 0 87.716 12.995 111.206 25.49.25 8.496-1.749 21.74-3.498 26.49-52.98 12.494-85.466 10.995-121.202 9.495-3 11.196-3.749 19.992 6.747 35.486l-3.748 12.495s-20.492 7.747-27.74 10.246c-25.74-10.746-35.735-8.746-47.98-9.246-12.246-.5-33.237 1.5-49.73 4.998z" style="fill:none;stroke:#f0f;stroke-width:1px;stroke-linecap:butt;stroke-linejoin:miter;stroke-opacity:1"/>
  <path d="M427.206 1147.858c.375-1.437.812-4.748.5-6.748-.313-1.999-1.312-2.936-1.562-4.81-.25-1.874-.688-4.311-1.687-4.936-.313-.625-.313-2.436-.812-3.873-.5-1.437-1.562-2.124-3.312-3.061-1.749-.938-5.123-5.124-5.81-5.873-.687-.75-1.062-2-1.749-3.186-.687-1.187-3.186-2.75-3.811-3.437-.625-.687-.75-2.686-2-3.81.376.124 1.438.187 2.062.562 2.25 3.936 6.31 6.747 7.685 7.247 1.374.5 5.56 2.561 8.434 3.499-.812-2.125-2.874-10.559-6.56-16.12-3.686-5.56-6.622-7.434-8.621-7.996-2-.562-4.936-1.187-7.06-2.562-2.124-1.374-4.81.062-8.56-.937-3.748-1-4.747-2.624-5.747-3.873-1-1.25-2.312-2.374-5.498-2.374-3.186 0-3.373-1.5-6.06-.625a19.61 19.61 0 0 0-1.89-5.006c-.707-2.298-5.3-3.711-6.361-5.125-1.06-1.413-3.358-11.486-3.711-18.024-.353-6.538-2.65-16.787-6.185-24.032-3.534-7.245-10.779-11.84-12.723-13.253-1.943-1.414-2.12-2.65-4.417-7.245-2.297-4.594-6.715-15.727-11.133-24.739-4.417-9.012-13.253-15.727-17.14-18.554-.707-2.297-6.008-8.305-6.538-10.25-.53-1.943-3.535-7.244-9.19-12.015-5.654-4.771-12.192-6.715-17.736-11.073-1.75-6.247-7.372-19.992-7.622-20.617 1.125 0 2.5 2.874 4.748 3.374 2.25.5 3.249-.375 6.373-.25 3.123.125 7.622.625 16.868 2.75 9.246 2.123 12.37 3.498 15.494 0 3.124-3.5 2.624-7.498 2-8.622-.626-1.125-2.5-3.5-2.75-7.997-.25-4.499-.625-6.373-1.5-8.747-.874-2.374-.999-6.247-2.748-8.621-1.75-2.374-3.624-4.749-4.498-5.498-.875-.75-1.125-2.25.5-3.624 2.226-1.884 4.373-7.872 2.249-9.87 0 0-5.748-1.75-10.246-7.123 4.623-4.498 9.996-8.497 12.745-19.492 10.995-9.996 13.994-14.12 16.118-17.993 2.124-3.874 5.623-18.243 7.122-22.241 5.873-2.374 8.872-6.998 9.871-10.496 1-3.499 1.375-9.996 1.875-12.245.5-2.25 3.498-13.745 9.371-16.369 3.249 2.624 8.247 3.999 9.746 4.248 2.999.375 2.749-1 6.123-1.374 3.373-.375 12.495-.375 15.993-.75 3.499-.375 8.247-3.748 8.997-8.746-4.249.125-13.12-.375-20.367-2.874-.75-1.75-.75-2.749-2.25-5.623-.124-3.623-.25-6.872-.25-6.872s.626-3.749 2.125-3.374c1.5.375 7.372.875 9.246.25 1.375-1.374 2.374-6.872-.125-8.746-2.499-1.875-5.872-5.373-6.747-7.373-.875-1.999-1.5-3.248-2.999-2.748-1.624-2.25-4.748-3.25-6.622-3-1.874.25-4.248 2.125-5.373 3.124-2.624-1.124-4.873-1.374-7.622 1.875-4.498-1.125-9.746-1.125-11.87 1.874-6.748 2.25-9.746 6.622-10.871 9.246-1.125 2.624-1.125 9.871-.375 13.87-2.124 1.5-3.623 4.123-4.498 5.373-2.874 2.749-6.123 6.872-12.495 11.245-6.373 4.374-17.368 16.119-19.617 25.49-2.25 9.371-4.374 10.87-4.374 10.87-12.245 4.5-16.243 9.122-18.117 14.12-8.997.5-27.614 4.374-28.864 10.996-.875.5-2.124.375-2.124.375-2.686-2.36-9.931-10.842-11.963-11.373-2.033-.53-3.446-.176-7.334-1.06-3.887-.883-17.582-5.301-18.819-5.39-1.237-.088-14.225 2.651-15.727 3.181-.1 1.443.027 2.887 1.325 4.33 5.567 1.148 22 8.482 24.651 9.984 2.65 1.502 9.189 4.947 11.398 6.714 2.208 1.767 6.273 6.715 6.184 8.747-.088 2.033-2.739 2.033-5.92 1.856-3.18-.177-13.076-3.004-15.903-3.8-2.827-.795-8.04-2.738-12.104-3.092-4.065-.353-22.849.097-30.672 3.284-1.084 1.588.214 1.473.617 1.998 3.031.28 5.83.153 10.352.285 2.524.073 7.687 1.855 12.458 3.269 1.473.436 3.695 1.504 6.118 2.811-2.85 1.253-11.685 6.289-15.13 10.265-3.446 3.976-11.751 15.727-13.077 18.024-5.831 4.506-8.747 10.867-9.012 12.723-5.213 3.534-9.012 8.835-8.482 11.662-3.357 1.326-4.594 4.772-4.594 4.772-2.12-6.362-8.747-17.936-12.811-20.057-4.065-2.12-14.667-5.3-20.587-11.486-5.92-6.184-7.686-8.305-8.747-9.895-1.06-1.59-10.514-1.59-14.931-.795-4.418.795-13.872 6.008-14.579 7.598-.706 1.59-.883 14.755-.53 17.052.354 2.297-.883 7.599-1.943 10.426s-3.181 9.012-1.68 17.317c1.503 8.305 3.005 16.08 6.274 20.763 3.269 4.683 3.71 7.51 3.71 7.51s-.706 3.446-2.562 3.976c-1.855.53-3.004-1.767-5.212.619-2.21 2.385-3.976 4.594-5.567 5.39-1.59.794-4.417 1.59-4.506 3.887-.088 2.297 2.298 5.478 3.181 7.421a63.691 63.691 0 0 1 6.538 1.149s4.506 5.566 7.422 7.422c2.916 1.855 7.687 9.807 9.454 14.755 1.767 4.947 6.008 16.257 11.486 17.67 5.478 1.414 8.747-1.413 8.747-1.413s-3.004 3.269-4.86 4.152c-1.855.884-2.827 1.59-2.915 3.004-.089 1.414.176 3.711 4.152 4.153 3.976.442 14.048-.265 22.795-3.888 8.747-3.622 14.402-8.482 15.374-9.012.442 3.181 3.357 9.896 7.421 13.165 4.065 3.27 12.282 6.008 17.141 5.566 4.771 2.386 3.888 1.326 5.831 3.093 1.944 1.767 11.663 11.662 24.386 15.373 12.723 3.711 16.08.707 18.73 1.237 2.651.53 10.603 5.125 10.78 10.956-3.711 5.654-10.426 11.486-13.43 17.317-3.004 5.831-1.944 19.084-2.12 20.321-.177 1.237-4.595 12.9-7.422 16.964-2.827 4.064-12.193 16.257-16.61 20.145-4.418 3.887-11.84 9.542-13.96 15.373-2.12 5.832-1.06 11.663 5.831 12.016 9.043.464 28.803 2.65 30.394 3.004 1.59.354 21.582 2.502 30.923 3.358 2.262.207 5.92-1.326 11.84-4.241-2.651-2.474-4.153-3.004-4.683-3.093 4.418.796 6.273-1.502 6.626-1.502-2.474-1.943-2.827-2.65-5.3-3.004 2.915-.53 4.947-1.413 6.449-3.357-.618-.884-4.418-2.386-4.683-2.739 3.181-1.944 5.125-4.948 5.125-4.948s-3.181-2.297-4.595-2.474c.53-.795 1.856-2.12 1.856-2.12-2.032-2.12-1.944-4.595-8.482-4.683-6.538-.088-11.84 1.856-12.9 1.856-1.06 0-9.63-4.153-9.63-4.153s6.273-9.807 11.927-14.49c5.655-4.683 11.045-10.249 16.434-18.112 5.39-7.864 9.984-20.233 10.868-27.037.883-6.803 1.237-10.425 1.237-10.955 1.767-3.535 1.59-4.771 1.943-5.832.354-1.06 1.856-4.24.707-6.008-1.148-1.767-.176-3.269.884-5.654 1.06-2.386.972-17.671-3.711-23.679-4.683-6.008-7.952-9.365-10.16-15.639-2.21-6.273-11.045-22.353-14.314-24.473 2.739.441 8.924 1.855 8.924 1.855s2.827 9.807 4.152 12.281c1.326 2.474 12.105 20.145 25.358 23.237 5.124 8.305 12.458 15.373 21.381 17.582 4.595 6.362 7.687 15.992 9.984 18.201 2.297 2.209 3.358 2.916 3.358 2.916 2.912 12.125 7.41 19.122 10.909 23.495 3.498 4.374 17.493 14.745 18.867 17.369 1.375 2.624 2.874 11.245 3.874 12.37 1 1.124 4.373 3.998 4.373 3.998 1.374 5.248 4.498 13.37 5.623 15.494 1.124 2.124 6.872 8.372 7.122 9.496.25 1.125 5.498 11.746 5.748 12.745.25 1 .874 8.622 2.623 11.12 1.75 2.5 6.373 6.748 6.748 7.373s2.499 2.499 2.499 2.499l2.124.125s2.749 3.998 11.246 3.373c-3-3.248-3.374-2.998-4.749-6.122 4.499 2.249 9.996 4.998 15.494 2.499 0 0 .125-1.625-.874-2.999 4.498 2.25 10.745 4.123 11.995 3.998 1.25-.124 4.373-1.499 4.498-2.499-2-2.873-4.873-4.748-5.623-6.497-.75-1.75-1.374-4.248-5.248-6.372-.874-2.125-2.998-6.623-4.623-7.497-1.624-.875-1.374-4.499-1.374-6.123 0-1.624-1.25-2.374-2.624-3.998-1.625-2.375-3.874-5.123-3.499-5.748s2.25 0 2.75.125c.499.125 8.496 5.498 9.245 5.872.75.375 1 2.125 3.374 3.25 2.374 1.124 2.749 1.873 3.249 3.373.5 1.5 2.499 6.497 3.998 8.122 1.5 1.624 2.374 4.373 2.624 5.497.25 1.125.125 4.499.125 4.499s3.999-1.5 3.499-8.934z" style="fill:none;stroke:red;stroke-width:1px;stroke-linecap:butt;stroke-linejoin:miter;stroke-opacity:1"/>
  <path d="M114.455 998.604c3.623-1.624 5.622-4.748 6.372-6.122-2.749-1-4.248-4.249-4.248-4.249-.125 1.5-.75 2.125-.5 3.374.25 1.25 1.624 5.123-1.624 6.997zM841.916 692.6s-1.999-2.249-6.497-2.623c-4.498-.375-16.743 1.624-18.118.25 2.999-1.5 6.997-6.623 13.995-8.872 6.997-2.25 13.62-3.249 13.62-3.249-2.5-3.373-6.748-8.996-15.495-6.872-8.746 2.124-12.12 6.123-13.994 6.997-1.874.875-4.373.5-4.373.5 2.998-3.124 7.622-11.37 15.494-13.495 7.871-2.124 16.993-.874 21.866 2.5.75-3.5-5.498-11.87-11.995-13.87-6.498-2-19.368.25-21.117 1.5-1.75 1.249-10.62 6.622-12.995 6.747 1-2.25-1-6.123-1-7.997 0-1.874.5-7.497 1.125-8.372s9.496-9.746 13.745-12.245c4.248-2.499 8.246-2.624 13.494-2.999 5.248-.375 5.623-.625 8.247 0 .375-2.249-9.246-7.747-14.12-7.872-4.872-.125-8.746 3.374-12.994 3.249-4.249-.125-6.123 1.5-9.122 4.373-2.998 2.874-4.748 5.498-6.997 6.748-2.249 1.25-4.248 3.373-5.623 6.997-1.374 3.623-2.998 9.621-2.998 9.621l-2-.75c-.874-3.748-2.874-9.496 2-17.243 4.873-7.747 5.997-10.37 8.121-11.87 2.124-1.5 10.746-5.373 14.12-6.623-6.123-1.249-11.996-1.999-15.62-.75-3.623 1.25-9.62 5.124-13.744 8.497-4.123 3.374-8.121 12.995-8.746 15.744-.625 2.75-.25 10.996-1.75 15.12-3.373.25-6.122 1.624-7.996 2.998-1.875 1.374-3.874 3.249-4.748 4.498-.875 1.25-2.25 2.75-3.499 2.5-1.25-.25-2.999.25-4.248 2.123-1.25 1.875-1.25 3.25-1.25 5.123-4.123 4.374-3.998 5.248-3.998 7.997-.75-.375-1.375 2-2.5 2.5-1.124.499-2.998 1.124-3.373 2.873-.375 1.75-.5 5.248-.25 7.747-2.124 2.874-2.624 5.123-2.874 6.622 1.125.5 2.374 0 2.374 0-.25 1-1.499 2.5-1.25 5.748-2.248.25-3.498 1.874-4.123 4.248-.624 2.374-3.498 2.874-3.623 3.999-.125 1.124-.5 4.248 3.374 6.372 3.873 2.124 6.122 1.75 10.745 1 4.623-.75 16.119-1.375 18.368-1 2.25.375 4.623 1.625 5.873 0 1.25-1.624 2.499-3.248 3.748-3.248 1.25 0 3.374.75 4.249 3.373.874 2.624 2.124 5.623 5.247 5.498 3.124-.125 5.498-.75 6.873.25 1.374 1 2.749.625 3.248 3.124.5 2.499-1.124 4.498.625 6.872 1.75 2.374 2 3.249 1.125 5.873s-1.25 11.62 1 16.243c-2.25.625-5.998.75-5.998.75.5-2.5-1.25-7.747-1.625-8.747-.374-1 .375-5.622 1.125-6.997.75-1.374.375-3.124-1.375-5.123-1.749-1.999-4.873-2.499-4.873-2.499-1.624-1.5-4.623-3.124-8.746-2.124-3.999-1.5-8.497-3.374-10.746-.125-3.873-.375-7.497 0-7.747 1.874-1.999.125-3.373 0-4.623-.624-1.25-.625-4.998-.375-6.123.874-1.124 1.25-3.748 4.623-7.372 7.747 5.248.375 9.747.5 9.747.5 1.374.625 2.873 1 4.873.75.25 1.374-1 4.873 1.999 10.62-1.125 2.624-4.748 12.995-.25 18.368 4.498 5.373 3.873 6.498 3.748 8.247-.125 1.75-1.374 3.249 2.125 5.123 3.498 1.874 3.498 2.749 3.498 2.749s4.623 11.87 9.371 17.243c4.749 5.373 13.495 10.746 16.494 9.496 3.374 2 5.373 1.5 5.373 1.5 2.624 1.499 5.123 4.373 9.87 4.498 4.749.125 11.621-2.374 12.996-4.248 1.374-1.875 1-4.374 1-4.374s.999-1.124 1.499-1.874c7.247-3.499 11.245-7.997 12.245-11.37 3.873.124 8.372 2.748 8.247 4.623-.125 1.874-.125 4.123.25 5.123.374 1 4.623 6.247 4.623 6.997s-.5 6.872-.625 7.997c-3.129 2.614-4.896 5.441-9.667 5.971-4.771.53-23.325 5.125-33.928 13.783-10.602 8.659-16.787 21.912-17.847 24.563-3.888 2.297-11.133 4.947-10.603 12.37.53 7.42 2.651 13.075 5.302 15.196 2.65 2.12 4.417 2.12 8.835 3.534 4.418 1.414 3.887 8.305 12.723 13.076 8.658 4.418 20.498 4.948 24.032 6.008 0 2.12 1.06 1.944 2.827 4.948 1.767 3.004-3.357 1.944-.177 8.129 3.181 6.184-4.77 8.835.354 13.43 5.124 4.594 6.538 6.89 11.132 8.481.354-2.474.884-6.891.884-8.128 9.719-.354 16.08-1.237 22.442-3.181 6.361-1.944 8.305-3.18 14.843-3.18s23.149-1.238 23.679-12.193c.53-10.956-19.438-14.314-23.679-14.844-4.948-5.124-9.189-9.542-16.08-10.426-6.892-.883-10.78-3.004-16.434-8.835 2.827-1.237 7.422-3.71 9.896-5.654 3.004.883 9.718.53 13.96-1.768 2.65 5.478 10.425 14.137 14.666 10.073 3.358-2.12 1.767-7.599 1.767-7.599s3.711.707 5.478 1.06c1.414 6.185 9.896 24.21 14.667 27.92 4.77 3.711 22.441 13.43 22.441 13.43s2.474 3.004.707 7.422c-1.767 4.417-5.654 16.257-5.124 25.092.53 8.835 3.887 14.137 6.361 17.14 2.474 3.005 4.595 5.832 4.771 6.715.177.884.177 10.426.354 11.486.176 1.06 1.237 8.482-.707 10.956s-8.129 6.185-9.896 8.305c-1.767 2.12-5.124 4.771-3.534 11.31 1.59 6.538 8.482 8.481 12.723 10.779 4.241 2.297 10.25 5.124 14.667 10.249 4.417 5.124 7.952 10.955 15.727 14.843 1.89 1.443 4.14 1.318 7.014.443 1.874 1.25 2.249.75 3.748 1.25.375 1.25.875 2.249 1.5 2.999.124 1.874.75 4.123 3.248 3.873 2.5-.25 3.749-1.624 3.749-1.624s1.75 2.499 2.374 4.373c2.624-.75 3.748-3.499 3.748-3.499s1.625 3 1.875 3.624c2.499-4.623 2.749-7.872 2.873-8.747.75.625 2 2.374 2 2.374s2.874-6.747.25-11.245c1.499 1 5.123 1 6.372.5 1.25-.5 3.499.874 3.749 1.5-1.375-4-1.125-6.998-3.624-8.997-2.499-2-6.248-2.374-7.122-3.624-.875-1.25-2-2.499-4.373-2.374-2.375.125-3.124 1.125-6.498-1.374-3.374-2.5-6.122.624-8.996-1.875-2.874-2.499-8.997-14.869-12.245-18.742-3.25-3.874-6.498-13.745-5.873-17.119.625-3.373 11.12-26.364 10.496-35.36-.625-8.997-1.625-10.621-1.75-10.621.625-4.374-1.124-13.87-.5-15.62.625-1.748 3.874-6.247 2.874-8.37-1-2.125-7.497-15.37-7.622-17.619-.124-2.249-1.249-11.12-4.498-21.991-3.248-10.87-7.122-27.364-9.246-29.488-2.124-2.125-14.12-14.994-17.368-19.243-3.249-4.248-8.247-12.12-9.746-14.619.375-1.75-.75-3.873-1.125-5.498.375-5.623 1.5-18.617 1.874-27.114.375-8.497.625-20.742-2.749-25.615 2.375-5.623 2.624-8.621 2.624-9.996 5.873.625 17.119 2.25 20.617 4.998 3.499 2.749 6.248 3.374 8.747 3.624 2.499.25 5.373 4.748 19.367 3.123 13.995-1.624 20.742-6.747 27.114-7.497 6.373-.75 14.245-3.123 16.994-8.121 2.749-4.998 6.997-14.37 7.497-15.494 3.623-2.124 7.747-7.872 8.621-9.122.875-1.25 1.125-6.997 10.371-10.62 3.999-2.25 5.248-6.873 4.498-8.372-1 0-1.999 1-2.624 1-1.624-1.125-3.748-.125-4.623-.25-1.374-.375-6.372-1.25-8.247 1-5.247-1-7.746-1.875-9.87-.875-2.874-1.625-5.748-2.125-6.623-1.125s-4.248 2.25-5.248 2.124c-.75-1.5-3.124-.375-5.123-.25-2 .125-5.248 1-5.873 3-.624 1.998-1.374 6.372-3.623 7.87-2.25 1.5-4.623 2.625-3.499 6.248 1.125 3.624 1.375 11.371 0 13.995-3.373-1-10.87-2.5-11.995-3.374-1.125-.874-10.996-6.872-17.368-7.122-6.373-.25-10.746.625-12.245.625-5.123-2-9.621-4.873-13.37-7.872-3.748-2.999-14.494-13.745-18.243-15.869-3.748-2.124-7.747-3.623-7.747-3.623-1.968-6.06-6.74-19.137-21.76-26.028-15.02-6.892-28.272 1.413-31.276 3.18-2.828 0-4.953.006-7.69.357z" style="fill:none;stroke:red;stroke-width:1px;stroke-linecap:butt;stroke-linejoin:miter;stroke-opacity:1"/>
  <path d="m711.218 1261.5-303.88-66.973" style="fill:none;stroke:#000;stroke-width:1px;"/>
  <path d="M-15.994-15.994h1083.571v1649.347H-15.994z" style="fill:none;stroke:#0f0;stroke-width:3;stroke-miterlimit:4;"/>
</svg>
